<svg width="44" height="10" viewBox="0 0 44 10" fill="none" xmlns="http://www.w3.org/2000/svg">
<path d="M5.148 9.108C5.02 9.108 4.912 9.012 4.824 8.82L1.572 1.764C1.548 1.708 1.516 1.684 1.476 1.692C1.444 1.7 1.428 1.736 1.428 1.8V7.968C1.428 8.192 1.464 8.364 1.536 8.484C1.616 8.596 1.756 8.668 1.956 8.7L2.112 8.724C2.216 8.732 2.268 8.78 2.268 8.868C2.268 8.956 2.208 9 2.088 9H0.372001C0.252001 9 0.192001 8.956 0.192001 8.868C0.192001 8.78 0.244001 8.732 0.348001 8.724L0.504001 8.7C0.712001 8.668 0.856001 8.596 0.936001 8.484C1.016 8.364 1.056 8.192 1.056 7.968V1.152C1.056 0.984003 1.028 0.872003 0.972001 0.816002C0.924001 0.760003 0.808001 0.716003 0.624001 0.684003L0.348001 0.636003C0.244001 0.612002 0.192001 0.564002 0.192001 0.492002C0.192001 0.404002 0.252001 0.360003 0.372001 0.360003H1.656C1.856 0.360003 1.996 0.448003 2.076 0.624003L4.908 6.852C4.932 6.9 4.96 6.92 4.992 6.912C5.032 6.904 5.052 6.876 5.052 6.828V1.392C5.052 1.136 5.008 0.960003 4.92 0.864002C4.832 0.760002 4.72 0.696002 4.584 0.672003L4.368 0.636003C4.264 0.612002 4.212 0.564002 4.212 0.492002C4.212 0.404002 4.272 0.360003 4.392 0.360003H6.108C6.228 0.360003 6.288 0.404002 6.288 0.492002C6.288 0.580003 6.236 0.628003 6.132 0.636003L5.976 0.660002C5.768 0.692002 5.624 0.760002 5.544 0.864002C5.464 0.960003 5.424 1.136 5.424 1.392V8.724C5.424 8.868 5.396 8.968 5.34 9.024C5.292 9.08 5.228 9.108 5.148 9.108Z" fill="black"/>
<path d="M8.22553 9.108C7.81753 9.108 7.44953 8.972 7.12153 8.7C6.80153 8.42 6.54553 8.04 6.35353 7.56C6.16153 7.08 6.06553 6.544 6.06553 5.952C6.06553 5.36 6.16153 4.828 6.35353 4.356C6.54553 3.884 6.80553 3.508 7.13353 3.228C7.46153 2.948 7.82553 2.808 8.22553 2.808C8.63353 2.808 8.99753 2.948 9.31753 3.228C9.64553 3.508 9.90553 3.884 10.0975 4.356C10.2895 4.828 10.3855 5.36 10.3855 5.952C10.3855 6.544 10.2895 7.08 10.0975 7.56C9.91353 8.04 9.65753 8.42 9.32953 8.7C9.00153 8.972 8.63353 9.108 8.22553 9.108ZM8.22553 8.808C9.05753 8.808 9.47353 7.856 9.47353 5.952C9.47353 4.056 9.05753 3.108 8.22553 3.108C7.39353 3.108 6.97753 4.056 6.97753 5.952C6.97753 7.856 7.39353 8.808 8.22553 8.808Z" fill="black"/>
<path d="M11.972 9.108C11.692 9.108 11.46 9.012 11.276 8.82C11.1 8.62 11.012 8.296 11.012 7.848V3.36C11.012 3.264 10.964 3.216 10.868 3.216H10.52C10.392 3.216 10.328 3.168 10.328 3.072C10.328 3.008 10.364 2.952 10.436 2.904C10.7 2.72 10.912 2.524 11.072 2.316C11.232 2.1 11.372 1.808 11.492 1.44C11.548 1.272 11.616 1.188 11.696 1.188C11.784 1.188 11.828 1.252 11.828 1.38V2.712C11.828 2.824 11.884 2.88 11.996 2.88H12.776C12.904 2.88 12.968 2.936 12.968 3.048C12.968 3.16 12.904 3.216 12.776 3.216H11.996C11.884 3.216 11.828 3.272 11.828 3.384V7.86C11.828 8.036 11.856 8.176 11.912 8.28C11.968 8.376 12.072 8.424 12.224 8.424C12.392 8.424 12.528 8.34 12.632 8.172C12.744 8.004 12.816 7.732 12.848 7.356C12.864 7.244 12.916 7.188 13.004 7.188C13.1 7.188 13.148 7.248 13.148 7.368C13.124 7.984 12.996 8.428 12.764 8.7C12.54 8.972 12.276 9.108 11.972 9.108Z" fill="black"/>
<path d="M14.8005 9C14.6805 9 14.6205 8.956 14.6205 8.868C14.6205 8.796 14.6725 8.748 14.7765 8.724L15.0525 8.676C15.2205 8.644 15.3285 8.6 15.3765 8.544C15.4325 8.488 15.4605 8.376 15.4605 8.208V1.152C15.4605 0.984003 15.4325 0.872003 15.3765 0.816002C15.3285 0.760003 15.2205 0.716003 15.0525 0.684003L14.7765 0.636003C14.6725 0.612002 14.6205 0.564002 14.6205 0.492002C14.6205 0.404002 14.6805 0.360003 14.8005 0.360003H17.2365C17.6365 0.360003 17.9925 0.444002 18.3045 0.612002C18.6165 0.780002 18.8605 1.008 19.0365 1.296C19.2205 1.584 19.3125 1.912 19.3125 2.28C19.3125 2.64 19.2045 2.976 18.9885 3.288C18.7805 3.592 18.4765 3.848 18.0765 4.056C18.0285 4.08 18.0045 4.112 18.0045 4.152C18.0045 4.192 18.0325 4.22 18.0885 4.236C18.6325 4.42 19.0525 4.716 19.3485 5.124C19.6445 5.524 19.7925 6 19.7925 6.552C19.7925 7.024 19.6845 7.448 19.4685 7.824C19.2525 8.192 18.9525 8.48 18.5685 8.688C18.1925 8.896 17.7645 9 17.2845 9H14.8005ZM16.9485 4.068C17.3725 4.068 17.7245 3.904 18.0045 3.576C18.2925 3.24 18.4365 2.824 18.4365 2.328C18.4365 1.832 18.3005 1.432 18.0285 1.128C17.7565 0.816002 17.3965 0.660002 16.9485 0.660002C16.5245 0.660002 16.3125 0.820002 16.3125 1.14V3.408C16.3125 3.64 16.3605 3.808 16.4565 3.912C16.5605 4.016 16.7245 4.068 16.9485 4.068ZM17.1285 8.7C17.6485 8.7 18.0725 8.504 18.4005 8.112C18.7285 7.712 18.8925 7.18 18.8925 6.516C18.8925 5.852 18.7245 5.328 18.3885 4.944C18.0605 4.56 17.6165 4.368 17.0565 4.368C16.5605 4.368 16.3125 4.564 16.3125 4.956V7.872C16.3125 8.424 16.5845 8.7 17.1285 8.7Z" fill="black"/>
<path d="M21.083 9.108C20.747 9.108 20.471 9.004 20.255 8.796C20.039 8.58 19.931 8.296 19.931 7.944C19.931 7.6 20.039 7.276 20.255 6.972C20.471 6.66 20.767 6.38 21.143 6.132C21.519 5.884 21.947 5.684 22.427 5.532C22.531 5.5 22.583 5.432 22.583 5.328V4.236C22.583 3.852 22.523 3.58 22.403 3.42C22.283 3.252 22.119 3.168 21.911 3.168C21.711 3.168 21.527 3.26 21.359 3.444C21.199 3.62 21.083 3.92 21.011 4.344C20.971 4.6 20.883 4.788 20.747 4.908C20.619 5.02 20.487 5.076 20.351 5.076C20.127 5.076 20.015 4.964 20.015 4.74C20.015 4.508 20.079 4.28 20.207 4.056C20.343 3.824 20.519 3.616 20.735 3.432C20.951 3.24 21.187 3.088 21.443 2.976C21.699 2.864 21.955 2.808 22.211 2.808C23.003 2.808 23.399 3.268 23.399 4.188V7.86C23.399 8.196 23.483 8.364 23.651 8.364C23.755 8.364 23.851 8.296 23.939 8.16C24.027 8.016 24.071 7.776 24.071 7.44C24.071 7.312 24.123 7.248 24.227 7.248C24.323 7.248 24.371 7.316 24.371 7.452C24.371 8.036 24.267 8.46 24.059 8.724C23.859 8.98 23.631 9.108 23.375 9.108C23.183 9.108 23.031 9.032 22.919 8.88C22.807 8.72 22.731 8.532 22.691 8.316C22.683 8.236 22.647 8.196 22.583 8.196C22.527 8.188 22.471 8.224 22.415 8.304C22.223 8.568 22.027 8.768 21.827 8.904C21.627 9.04 21.379 9.108 21.083 9.108ZM21.407 8.556C21.615 8.556 21.807 8.484 21.983 8.34C22.159 8.188 22.303 7.988 22.415 7.74C22.527 7.492 22.583 7.212 22.583 6.9V6.024C22.583 5.872 22.499 5.828 22.331 5.892C21.843 6.068 21.463 6.312 21.191 6.624C20.927 6.928 20.795 7.296 20.795 7.728C20.795 8.28 20.999 8.556 21.407 8.556Z" fill="black"/>
<path d="M26.1279 9.108C25.7759 9.108 25.4599 8.988 25.1799 8.748C24.9079 8.5 24.6959 8.16 24.5439 7.728C24.3919 7.288 24.3159 6.78 24.3159 6.204C24.3159 5.532 24.4199 4.944 24.6279 4.44C24.8359 3.928 25.1239 3.528 25.4919 3.24C25.8599 2.952 26.2759 2.808 26.7399 2.808C26.8519 2.808 26.9639 2.82 27.0759 2.844C27.1879 2.86 27.2959 2.892 27.3999 2.94C27.5279 3.004 27.5919 2.976 27.5919 2.856V1.32C27.5919 1.176 27.5679 1.076 27.5199 1.02C27.4799 0.964002 27.4039 0.932002 27.2919 0.924002L26.9799 0.888002C26.8919 0.872002 26.8479 0.824003 26.8479 0.744003C26.8479 0.664003 26.8919 0.616003 26.9799 0.600002C27.2359 0.552002 27.4399 0.496002 27.5919 0.432002C27.7519 0.368002 27.8839 0.304002 27.9879 0.240003C28.1159 0.160003 28.2119 0.120003 28.2759 0.120003C28.3639 0.120003 28.4079 0.184003 28.4079 0.312002V7.86C28.4079 8.196 28.4919 8.364 28.6599 8.364C28.7639 8.364 28.8599 8.296 28.9479 8.16C29.0359 8.016 29.0799 7.776 29.0799 7.44C29.0799 7.312 29.1319 7.248 29.2359 7.248C29.3319 7.248 29.3799 7.316 29.3799 7.452C29.3799 8.036 29.2799 8.46 29.0799 8.724C28.8799 8.98 28.6519 9.108 28.3959 9.108C28.1639 9.108 27.9879 9.032 27.8679 8.88C27.7479 8.72 27.6679 8.532 27.6279 8.316C27.6199 8.252 27.5919 8.22 27.5439 8.22C27.4959 8.212 27.4519 8.24 27.4119 8.304C27.1879 8.616 26.9839 8.828 26.7999 8.94C26.6159 9.052 26.3919 9.108 26.1279 9.108ZM26.3919 8.556C26.5999 8.556 26.7919 8.488 26.9679 8.352C27.1519 8.208 27.2999 8.016 27.4119 7.776C27.5319 7.536 27.5919 7.268 27.5919 6.972V4.272C27.5919 3.912 27.5079 3.628 27.3399 3.42C27.1799 3.212 26.9679 3.108 26.7039 3.108C26.2559 3.108 25.8919 3.372 25.6119 3.9C25.3399 4.42 25.2039 5.132 25.2039 6.036C25.2039 6.86 25.3079 7.488 25.5159 7.92C25.7319 8.344 26.0239 8.556 26.3919 8.556Z" fill="black"/>
<path d="M30.4834 9C30.3634 9 30.3034 8.96 30.3034 8.88C30.3034 8.8 30.3594 8.748 30.4714 8.724L30.6514 8.688C30.8114 8.656 30.9314 8.58 31.0114 8.46C31.0914 8.332 31.1594 8.156 31.2154 7.932L33.0754 0.432002C33.0914 0.352002 33.1154 0.300002 33.1474 0.276002C33.1874 0.252002 33.2234 0.240003 33.2554 0.240003C33.2954 0.240003 33.3314 0.252002 33.3634 0.276002C33.4034 0.300002 33.4314 0.352002 33.4474 0.432002L35.3434 8.04C35.3994 8.264 35.4634 8.42 35.5354 8.508C35.6074 8.596 35.7194 8.656 35.8714 8.688L36.0514 8.724C36.1634 8.748 36.2194 8.8 36.2194 8.88C36.2194 8.96 36.1594 9 36.0394 9H33.9874C33.8754 9 33.8194 8.956 33.8194 8.868C33.8194 8.78 33.8874 8.732 34.0234 8.724L34.2514 8.7C34.3874 8.684 34.4714 8.64 34.5034 8.568C34.5434 8.496 34.5434 8.372 34.5034 8.196L34.0474 6.336C33.9994 6.128 33.8674 6.024 33.6514 6.024H32.3914C32.1834 6.024 32.0514 6.128 31.9954 6.336L31.5874 7.944C31.4674 8.4 31.5874 8.652 31.9474 8.7L32.1274 8.724C32.2634 8.748 32.3314 8.796 32.3314 8.868C32.3314 8.956 32.2754 9 32.1634 9H30.4834ZM32.3554 5.664H33.6754C33.8034 5.664 33.8554 5.596 33.8314 5.46L33.0634 2.244H33.0034L32.1994 5.46C32.1754 5.596 32.2274 5.664 32.3554 5.664Z" fill="black"/>
<path d="M37.5551 9.108C37.2031 9.108 36.8871 8.988 36.6071 8.748C36.3351 8.5 36.1231 8.16 35.9711 7.728C35.8191 7.288 35.7431 6.78 35.7431 6.204C35.7431 5.532 35.8471 4.944 36.0551 4.44C36.2631 3.928 36.5511 3.528 36.9191 3.24C37.2871 2.952 37.7031 2.808 38.1671 2.808C38.2791 2.808 38.3911 2.82 38.5031 2.844C38.6151 2.86 38.7231 2.892 38.8271 2.94C38.9551 3.004 39.0191 2.976 39.0191 2.856V1.32C39.0191 1.176 38.9951 1.076 38.9471 1.02C38.9071 0.964002 38.8311 0.932002 38.7191 0.924002L38.4071 0.888002C38.3191 0.872002 38.2751 0.824003 38.2751 0.744003C38.2751 0.664003 38.3191 0.616003 38.4071 0.600002C38.6631 0.552002 38.8671 0.496002 39.0191 0.432002C39.1791 0.368002 39.3111 0.304002 39.4151 0.240003C39.5431 0.160003 39.6391 0.120003 39.7031 0.120003C39.7911 0.120003 39.8351 0.184003 39.8351 0.312002V7.86C39.8351 8.196 39.9191 8.364 40.0871 8.364C40.1911 8.364 40.2871 8.296 40.3751 8.16C40.4631 8.016 40.5071 7.776 40.5071 7.44C40.5071 7.312 40.5591 7.248 40.6631 7.248C40.7591 7.248 40.8071 7.316 40.8071 7.452C40.8071 8.036 40.7071 8.46 40.5071 8.724C40.3071 8.98 40.0791 9.108 39.8231 9.108C39.5911 9.108 39.4151 9.032 39.2951 8.88C39.1751 8.72 39.0951 8.532 39.0551 8.316C39.0471 8.252 39.0191 8.22 38.9711 8.22C38.9231 8.212 38.8791 8.24 38.8391 8.304C38.6151 8.616 38.4111 8.828 38.2271 8.94C38.0431 9.052 37.8191 9.108 37.5551 9.108ZM37.8191 8.556C38.0271 8.556 38.2191 8.488 38.3951 8.352C38.5791 8.208 38.7271 8.016 38.8391 7.776C38.9591 7.536 39.0191 7.268 39.0191 6.972V4.272C39.0191 3.912 38.9351 3.628 38.7671 3.42C38.6071 3.212 38.3951 3.108 38.1311 3.108C37.6831 3.108 37.3191 3.372 37.0391 3.9C36.7671 4.42 36.6311 5.132 36.6311 6.036C36.6311 6.86 36.7351 7.488 36.9431 7.92C37.1591 8.344 37.4511 8.556 37.8191 8.556Z" fill="black"/>
<path d="M41.9595 9.108C41.7755 9.108 41.5795 9.084 41.3715 9.036C41.1635 8.996 40.9955 8.944 40.8675 8.88C40.7955 8.84 40.7595 8.772 40.7595 8.676L40.7235 7.332C40.7235 7.196 40.7755 7.128 40.8795 7.128C40.9675 7.128 41.0275 7.192 41.0595 7.32C41.1955 7.888 41.3595 8.276 41.5515 8.484C41.7515 8.692 41.9915 8.796 42.2715 8.796C42.5035 8.796 42.6955 8.708 42.8475 8.532C42.9995 8.348 43.0755 8.096 43.0755 7.776C43.0755 7.456 42.9875 7.172 42.8115 6.924C42.6355 6.676 42.3395 6.404 41.9235 6.108C41.5075 5.828 41.2035 5.548 41.0115 5.268C40.8195 4.98 40.7235 4.668 40.7235 4.332C40.7235 3.876 40.8835 3.508 41.2035 3.228C41.5235 2.948 41.9475 2.808 42.4755 2.808C42.6355 2.808 42.7915 2.828 42.9435 2.868C43.0955 2.9 43.2315 2.956 43.3515 3.036C43.4235 3.084 43.4595 3.148 43.4595 3.228L43.4835 4.548C43.4835 4.668 43.4355 4.728 43.3395 4.728C43.2835 4.728 43.2435 4.712 43.2195 4.68C43.1955 4.64 43.1755 4.592 43.1595 4.536C42.9995 4.016 42.8395 3.656 42.6795 3.456C42.5195 3.248 42.3235 3.144 42.0915 3.144C41.8835 3.144 41.7115 3.216 41.5755 3.36C41.4395 3.504 41.3715 3.684 41.3715 3.9C41.3715 4.18 41.4555 4.424 41.6235 4.632C41.7915 4.84 42.0955 5.096 42.5355 5.4C42.9355 5.688 43.2355 6 43.4355 6.336C43.6435 6.664 43.7475 7.024 43.7475 7.416C43.7475 7.928 43.5835 8.34 43.2555 8.652C42.9275 8.956 42.4955 9.108 41.9595 9.108Z" fill="black"/>
</svg>
